<svg width="37" height="37" viewBox="0 0 37 37" fill="none" xmlns="http://www.w3.org/2000/svg">
<path d="M28.3281 0H8.67188C3.88253 0 0 3.88253 0 8.67188V28.3281C0 33.1175 3.88253 37 8.67188 37H28.3281C33.1175 37 37 33.1175 37 28.3281V8.67188C37 3.88253 33.1175 0 28.3281 0Z" fill="#F0DB4F"/>
<path d="M9.72866 30.9199L12.56 29.2063C13.1064 30.1748 13.6033 30.9943 14.7952 30.9943C15.9377 30.9943 16.6581 30.5474 16.6581 28.809V16.9866H20.1352V28.8581C20.1352 32.4594 18.0242 34.0987 14.9442 34.0987C12.1627 34.0987 10.5482 32.6581 9.72852 30.9196M22.0238 30.5473L24.8549 28.9081C25.6002 30.1252 26.5689 31.0193 28.2824 31.0193C29.7233 31.0193 30.6419 30.299 30.6419 29.3055C30.6419 28.1134 29.6981 27.691 28.1086 26.9958L27.2395 26.6231C24.7309 25.5553 23.0667 24.2141 23.0667 21.3827C23.0667 18.7748 25.0537 16.7878 28.1584 16.7878C30.3689 16.7878 31.9584 17.5578 33.1008 19.5695L30.3936 21.3081C29.7974 20.2402 29.1519 19.818 28.1584 19.818C27.1401 19.818 26.4943 20.4638 26.4943 21.3081C26.4943 22.3512 27.14 22.7735 28.6302 23.4194L29.4994 23.7919C32.4549 25.0587 34.119 26.3499 34.119 29.2557C34.119 32.3854 31.6603 34.099 28.357 34.099C25.1283 34.099 23.042 32.5591 22.0238 30.5473Z" fill="#323330"/>
</svg>
