<svg width="30" height="30" viewBox="0 0 30 30" fill="none" xmlns="http://www.w3.org/2000/svg">
<path d="M6.50004 0.833344H17.8334V3.66668H6.50004V0.833344ZM3.66671 6.50001V3.66668H6.50004V6.50001H3.66671ZM3.66671 17.8333H0.833374V6.50001H3.66671V17.8333ZM6.50004 20.6667H3.66671V17.8333H6.50004V20.6667ZM17.8334 20.6667V23.5H6.50004V20.6667H17.8334ZM20.6667 17.8333H17.8334V20.6667H20.6667V23.5H23.5V26.3333H26.3334V29.1667H29.1667V26.3333H26.3334V23.5H23.5V20.6667H20.6667V17.8333ZM20.6667 6.50001H23.5V17.8333H20.6667V6.50001ZM20.6667 6.50001V3.66668H17.8334V6.50001H20.6667Z" fill="white"/>
</svg>
